<?xml version="1.0" encoding="UTF-8"?>
<svg width="120" height="120" version="1.1" viewBox="0 -24 160 240" xmlns="http://www.w3.org/2000/svg">
  <defs>
    <style>.cls-1{fill:none;stroke:#1B1F23;stroke-linecap:round;stroke-linejoin:round;stroke-width:8px;}</style>
  </defs>
  <circle cx="77.99" cy="94.51" r="112" fill="#fff" stroke="#000" stroke-width="8" />
  <g transform="translate(-196 -24)">
    <path class="cls-1" d="m314.2 140.5c-3.893-0.7436-7.871-1.025-11.84-0.8365-5.339 0.258-9.59 1.43-17.87 3.764-16.34 4.604-16.08 4.552-16.31 4.601-7.091 1.482-17.77 0.9073-33.18-8.607m-5.143-32.89 10.43 99.68h70.56l9.472-99.84zm98.93-10.78h-109v10.37h109zm-8.306-8.41c-3.185-20.18-23.07-35.33-46.24-35.28-23.06 0.05716-42.8 15.18-45.97 35.28v8.329l92.21-0.1953zm-42.52-15.79-5.539 75.09m3.006-51.05 5.83-68.74-5.166 70.03" stroke-linejoin="round" stroke-width="7.812" style="paint-order:normal" />
    <path d="m241.6 176.6c-1.411-13.82-2.71-26.4-2.886-27.96l-0.3197-2.827 4.697 2.047c6.165 2.687 10.78 3.88 16.61 4.292 5.58 0.3942 7.973-0.0791 25.03-4.945 10.28-2.935 12.81-3.44 18.47-3.687 3.605-0.1576 7.095-0.0591 7.756 0.2191 1.193 0.5021 1.183 0.7038-1.476 29.24l-2.678 28.74h-62.64z" stroke="#1b1f23" stroke-width="2.509" />
  </g>
</svg>
