<svg xmlns="http://www.w3.org/2000/svg" data-name="Layer 1" viewBox="0 0 100.008 125" x="0px" y="0px">
  <defs>
    <style>.cls-1{fill:none;stroke:#1B1F23;stroke-linecap:round;stroke-linejoin:round;stroke-width:2.99805px;}</style>
  </defs>
  <title>FOOD ICONs</title>
  <path class="cls-1" d="M65.30016,57.66192a19.47813,19.47813,0,0,0-4.89618-.37084c-2.20794.11439-3.9655.63408-7.3905,1.66878-6.7562,2.04106-6.64758,2.01807-6.74381,2.03962-2.93206.6569-7.34658.40221-13.722-3.81552M30.42081,42.603l4.31157,44.18787h29.1781l3.91678-44.25907Zm40.9083-4.77736H26.25342V42.4208H71.32911Zm-3.43463-3.72816c-1.31719-8.94462-9.5418-15.663-19.11921-15.63752-9.53709.02534-17.69881,6.73064-19.01036,15.63752v3.86561H67.89448ZM50.31209,27.09735,48.02146,60.385M49.26468,42.3179m0-4.56391,2.411-30.472L49.53933,38.32724" />
</svg>
