<?xml version="1.0" encoding="UTF-8"?>
<svg width="104" height="104" viewBox="-37 -1 210 210" mlns="http://www.w3.org/2000/svg" version="1.1" xmlns="http://www.w3.org/2000/svg" xmlns:cc="http://creativecommons.org/ns#" xmlns:dc="http://purl.org/dc/elements/1.1/" xmlns:rdf="http://www.w3.org/1999/02/22-rdf-syntax-ns#">
  <metadata>
    <rdf:RDF>
      <cc:Work rdf:about="">
        <dc:format>image/svg+xml</dc:format>
        <dc:type rdf:resource="http://purl.org/dc/dcmitype/StillImage" />
        <dc:title />
      </cc:Work>
    </rdf:RDF>
  </metadata>
  <defs id="defs">
    <style>
      g {
        fill: none;
        mix-blend-mode: normal;
        stroke-opacity: 1;
        stroke-linecap: round;
        stroke-linejoin: round;
      }

      .fg {
        stroke: #0d1117;
      }

      .bg {
        stroke: none;
        fill: #c9d1d9;
      }
    </style>
  </defs>
  <g class="bg">
    <circle cx="68" cy="104" r="104" />
  </g>
  <g class="fg" transform="translate(8,8)">
    <path stroke-width="8px" d="m 100,120 c -4,0 -8,-1 -12,-1 -5.5,0 -10,1.5 -18.5,4 -16.5,4.5 -16.5,4.5 -16.5,4.5 -7,1.5 -18.5,1 -34,-9 M 14,86 24.5,188 H 97.5 L 107,86 Z M 116,75 H 4 V 85 H 116 Z M 107.5,66 C 104,46 84,30.5 60,30.5 36.5,30.5 16,46 13,66 v 8.5 L 107.5,74.5 Z M 63,50 57.5,126 M 61,74.5 66.5,4 61,75" />
  </g>
</svg>
