<?xml version="1.0" encoding="UTF-8"?>
<svg width="276" height="96" viewBox="0 0 504 204" mlns="http://www.w3.org/2000/svg" version="1.1" xmlns="http://www.w3.org/2000/svg" xmlns:cc="http://creativecommons.org/ns#" xmlns:dc="http://purl.org/dc/elements/1.1/" xmlns:rdf="http://www.w3.org/1999/02/22-rdf-syntax-ns#">
  <metadata>
    <rdf:RDF>
      <cc:Work rdf:about="">
        <dc:format>image/svg+xml</dc:format>
        <dc:type rdf:resource="http://purl.org/dc/dcmitype/StillImage" />
        <dc:title />
      </cc:Work>
    </rdf:RDF>
  </metadata>
  <defs id="defs">
    <filter style="color-interpolation-filters:sRGB" id="blur">
      <feGaussianBlur stdDeviation="2" id="feGaussianBlur882" />
    </filter>
    <style>
      g {
        fill: #c9d1d9;
        mix-blend-mode: normal;
        stroke-opacity: 1;
        stroke-linecap: round;
        stroke-linejoin: round;
        font-size: 120px;
        font-family: "Liberation Sans";
      }
    </style>
  </defs>
  <g transform="translate(-36 12) scale(1.75 1.75)">
    <path d="M 52 0.4 A 51.5 51.5 0 0 0 0.5 52 A 51.5 51.5 0 0 0 52 103.5 A 51.5 51.5 0 0 0 103.5 52 A 51.5 51.5 0 0 0 58.5 0.90625 A 3.5 3.5 0 0 1 58.5 2 L 58.5 2.25 L 58.5 2.5 L 58 12 C 68.5 14 78 22 79 32 A 3.5 3.5 0 0 1 79 32.5 L 79 33.5 L 80 33.5 A 3.5 3.5 0 0 1 83 37 L 83 42 A 3.5 3.5 0 0 1 80 45.5 L 78.5 45.5 L 74 93.5 A 3.5 3.5 0 0 1 70.5 96.5 L 34.5 96.5 A 3.5 3.5 0 0 1 31 93.5 L 26 45.5 L 24 45.5 A 3.5 3.5 0 0 1 21 42 L 21 37 A 3.5 3.5 0 0 1 24 33.5 L 25 33.5 L 25 32.5 A 3.5 3.5 0 0 1 25 32 C 27 20.5 38 12 51 12 L 52 2 L 52 2 A 3.5 3.5 0 0 1 52 0.5 A 51.5 51.5 0 0 0 52 0.5 A 51.5 51.5 0 0 0 52 0.5 z M 50.5 18.5 C 41 19 33 25.5 32 33 L 32 33.5 L 49 33.5 L 50.5 18.5 z M 57 19 L 57 24.5 A 3.5 3.5 0 0 1 57 25 L 56 33.5 L 72 33.5 L 72 33 C 71 26.5 65 21 57 19 z M 33 46 L 34 56 C 40.5 60 45 60 47.5 60 L 48.5 46 L 33 46 z M 55.5 46 L 54.5 58 L 56 58 C 60 56 62.5 55.5 66 55.5 C 67.5 55.5 69 55.5 70.5 56 L 71.5 46 L 55.5 46 z M 66 62.5 C 64 62.5 62 63 57.5 64 A 3.5 3.5 0 0 1 57.5 64 L 49.5 66.5 A 3.5 3.5 0 0 1 49 66.5 C 46 67 41 67 35 64 L 37.5 89.5 L 67.5 89.5 L 70 63 C 68 62.5 67 62.5 66 62.5 z" />
  </g>
  <g transform="translate(36 6)">
    <text x="15" y="38">
      <tspan x="108" y="186" stroke-width="4px">Suicide</tspan>
    </text>
  </g>
</svg>
